<svg width="443" height="135" viewBox="0 0 443 135" fill="none" xmlns="http://www.w3.org/2000/svg">
<path d="M118.592 116.552C118.432 115.048 117.904 113.88 117.008 113.048C116.128 112.216 114.992 111.8 113.6 111.8C112.464 111.8 111.432 112.12 110.504 112.76C109.576 113.384 108.832 114.272 108.272 115.424C107.728 116.576 107.456 117.936 107.456 119.504C107.456 121.008 107.744 122.336 108.32 123.488C108.896 124.64 109.672 125.536 110.648 126.176C111.624 126.816 112.704 127.136 113.888 127.136C114.928 127.136 115.952 126.904 116.96 126.44C117.968 125.96 118.792 125.272 119.432 124.376L120.056 124.88C119.368 125.824 118.624 126.552 117.824 127.064C117.024 127.576 116.224 127.92 115.424 128.096C114.64 128.288 113.92 128.384 113.264 128.384C112.064 128.384 110.96 128.168 109.952 127.736C108.96 127.304 108.096 126.704 107.36 125.936C106.64 125.152 106.08 124.248 105.68 123.224C105.296 122.184 105.104 121.064 105.104 119.864C105.104 118.728 105.272 117.624 105.608 116.552C105.96 115.48 106.48 114.512 107.168 113.648C107.856 112.784 108.72 112.096 109.76 111.584C110.816 111.072 112.04 110.816 113.432 110.816C115.192 110.816 116.808 111.304 118.28 112.28L118.16 110.984H119.456V116.552H118.592ZM130.453 121.784C130.453 121.08 130.357 120.576 130.165 120.272C129.973 119.968 129.669 119.784 129.253 119.72C128.837 119.656 128.285 119.64 127.597 119.672L125.845 119.744V125.24C125.845 126.072 125.821 126.696 125.773 127.112L130.357 127.04C131.061 127.024 131.669 126.912 132.181 126.704C132.693 126.48 133.093 126.096 133.381 125.552C133.669 125.008 133.813 124.264 133.813 123.32H134.629L134.485 128H122.101V127.208C122.709 127.176 123.125 127.04 123.349 126.8C123.573 126.544 123.693 126.2 123.709 125.768C123.741 125.32 123.757 124.816 123.757 124.256V113.888C123.757 113.216 123.781 112.64 123.829 112.16C123.541 112.176 123.253 112.192 122.965 112.208C122.677 112.224 122.389 112.24 122.101 112.256V111.2H133.645L133.765 115.4H132.973C132.973 114.456 132.829 113.744 132.541 113.264C132.253 112.768 131.861 112.44 131.365 112.28C130.885 112.104 130.341 112.024 129.733 112.04L127.669 112.088C127.077 112.104 126.653 112.216 126.397 112.424C126.141 112.632 125.981 112.944 125.917 113.36C125.869 113.76 125.845 114.288 125.845 114.944V118.784L130.357 118.808L130.189 116.744H131.245V121.784H130.453ZM137.031 128V127.208C137.639 127.176 138.055 127.04 138.279 126.8C138.503 126.544 138.623 126.2 138.639 125.768C138.671 125.32 138.687 124.816 138.687 124.256V113.888C138.687 113.216 138.711 112.64 138.759 112.16C138.471 112.176 138.183 112.192 137.895 112.208C137.607 112.224 137.319 112.24 137.031 112.256V111.2H142.431V111.992C141.839 112.008 141.423 112.144 141.183 112.4C140.959 112.656 140.831 113 140.799 113.432C140.783 113.864 140.775 114.368 140.775 114.944V125.24C140.775 126.072 140.751 126.696 140.703 127.112L145.191 127.04C146.199 127.024 146.959 126.704 147.471 126.08C147.999 125.456 148.263 124.44 148.263 123.032H149.079L148.935 128H137.031ZM159.258 121.784C159.258 121.08 159.162 120.576 158.97 120.272C158.778 119.968 158.474 119.784 158.058 119.72C157.642 119.656 157.09 119.64 156.402 119.672L154.65 119.744V125.24C154.65 126.072 154.626 126.696 154.578 127.112L159.162 127.04C159.866 127.024 160.474 126.912 160.986 126.704C161.498 126.48 161.898 126.096 162.186 125.552C162.474 125.008 162.618 124.264 162.618 123.32H163.434L163.29 128H150.906V127.208C151.514 127.176 151.93 127.04 152.154 126.8C152.378 126.544 152.498 126.2 152.514 125.768C152.546 125.32 152.562 124.816 152.562 124.256V113.888C152.562 113.216 152.586 112.64 152.634 112.16C152.346 112.176 152.058 112.192 151.77 112.208C151.482 112.224 151.194 112.24 150.906 112.256V111.2H162.45L162.57 115.4H161.778C161.778 114.456 161.634 113.744 161.346 113.264C161.058 112.768 160.666 112.44 160.17 112.28C159.69 112.104 159.146 112.024 158.538 112.04L156.474 112.088C155.882 112.104 155.458 112.216 155.202 112.424C154.946 112.632 154.786 112.944 154.722 113.36C154.674 113.76 154.65 114.288 154.65 114.944V118.784L159.162 118.808L158.994 116.744H160.05V121.784H159.258ZM165.836 128V127.208C166.444 127.192 166.86 127.056 167.084 126.8C167.308 126.528 167.428 126.168 167.444 125.72C167.476 125.256 167.492 124.728 167.492 124.136V114.056C167.492 113.192 167.516 112.56 167.564 112.16C167.276 112.176 166.988 112.192 166.7 112.208C166.412 112.224 166.124 112.24 165.836 112.256V111.2C166.716 111.184 167.596 111.176 168.476 111.176C169.372 111.16 170.3 111.152 171.26 111.152C173.116 111.152 174.564 111.48 175.604 112.136C176.66 112.792 177.172 113.832 177.14 115.256C177.14 115.768 176.988 116.28 176.684 116.792C176.396 117.304 175.956 117.76 175.364 118.16C174.788 118.544 174.06 118.816 173.18 118.976V119.024C174.94 119.024 176.268 119.432 177.164 120.248C178.06 121.048 178.508 122.064 178.508 123.296C178.508 124.272 178.26 125.112 177.764 125.816C177.268 126.52 176.596 127.064 175.748 127.448C174.9 127.816 173.932 128 172.844 128H165.836ZM169.58 118.808L171.332 118.76C172.244 118.744 172.964 118.56 173.492 118.208C174.02 117.84 174.396 117.384 174.62 116.84C174.86 116.296 174.972 115.728 174.956 115.136C174.94 114.272 174.74 113.616 174.356 113.168C173.988 112.72 173.532 112.416 172.988 112.256C172.444 112.096 171.908 112.016 171.38 112.016C170.596 112.016 170.1 112.184 169.892 112.52C169.684 112.856 169.58 113.464 169.58 114.344V118.808ZM169.508 127.04C169.764 127.056 170.068 127.072 170.42 127.088C170.788 127.088 171.124 127.088 171.428 127.088C171.748 127.088 171.956 127.088 172.052 127.088C173.284 127.088 174.276 126.784 175.028 126.176C175.796 125.552 176.18 124.64 176.18 123.44C176.18 122.464 175.988 121.704 175.604 121.16C175.22 120.616 174.716 120.232 174.092 120.008C173.468 119.784 172.788 119.672 172.052 119.672C171.572 119.672 171.132 119.68 170.732 119.696C170.348 119.696 169.964 119.712 169.58 119.744V125.168C169.58 126 169.556 126.624 169.508 127.04ZM180.554 128V127.208C181.162 127.176 181.578 127.04 181.802 126.8C182.026 126.544 182.146 126.2 182.162 125.768C182.194 125.32 182.21 124.816 182.21 124.256V113.888C182.21 113.216 182.234 112.64 182.282 112.16C181.994 112.176 181.706 112.192 181.418 112.208C181.13 112.224 180.842 112.24 180.554 112.256V111.2C181.45 111.184 182.354 111.168 183.266 111.152C184.194 111.136 185.122 111.144 186.05 111.176C188.37 111.208 190.034 111.6 191.042 112.352C192.066 113.104 192.578 114.144 192.578 115.472C192.594 116.096 192.474 116.736 192.218 117.392C191.978 118.032 191.53 118.608 190.874 119.12C190.234 119.632 189.306 120.016 188.09 120.272C188.41 120.496 188.69 120.784 188.93 121.136C189.17 121.488 189.442 121.896 189.746 122.36L191.378 124.928C191.65 125.36 191.914 125.752 192.17 126.104C192.426 126.44 192.722 126.712 193.058 126.92C193.394 127.112 193.81 127.208 194.306 127.208V128H191.282C190.818 127.584 190.426 127.168 190.106 126.752C189.802 126.336 189.482 125.864 189.146 125.336L187.538 122.768C187.33 122.432 187.09 122.048 186.818 121.616C186.562 121.168 186.266 120.792 185.93 120.488C185.674 120.504 185.402 120.512 185.114 120.512C184.842 120.512 184.57 120.504 184.298 120.488V125.144C184.298 125.992 184.274 126.624 184.226 127.04C184.514 127.024 184.802 127.008 185.09 126.992C185.378 126.976 185.666 126.96 185.954 126.944V128H180.554ZM185.786 119.6C186.666 119.568 187.434 119.424 188.09 119.168C188.762 118.912 189.29 118.504 189.674 117.944C190.058 117.384 190.25 116.648 190.25 115.736C190.25 114.52 189.898 113.608 189.194 113C188.506 112.392 187.426 112.088 185.954 112.088C185.362 112.088 184.946 112.208 184.706 112.448C184.482 112.688 184.354 113.024 184.322 113.456C184.306 113.872 184.298 114.368 184.298 114.944V119.552C184.554 119.568 184.794 119.584 185.018 119.6C185.258 119.616 185.514 119.616 185.786 119.6ZM195.333 128V127.208C195.813 127.208 196.181 127.08 196.437 126.824C196.693 126.568 196.901 126.216 197.061 125.768C197.237 125.32 197.437 124.8 197.661 124.208L202.605 110.744H203.181L208.533 124.4C208.661 124.736 208.805 125.168 208.965 125.696C209.125 126.224 209.189 126.672 209.157 127.04C209.429 127.024 209.701 127.008 209.973 126.992C210.245 126.976 210.517 126.96 210.789 126.944V128H205.293V127.208C205.901 127.192 206.301 127.056 206.493 126.8C206.685 126.544 206.757 126.24 206.709 125.888C206.661 125.536 206.581 125.216 206.469 124.928L205.629 122.672L199.389 122.816L198.549 125.384C198.437 125.768 198.333 126.072 198.237 126.296C198.157 126.52 198.061 126.768 197.949 127.04C198.269 127.024 198.581 127.008 198.885 126.992C199.205 126.976 199.517 126.96 199.821 126.944V128H195.333ZM199.749 121.784H205.293L203.589 117.2C203.413 116.704 203.229 116.216 203.037 115.736C202.861 115.24 202.685 114.744 202.509 114.248H202.461C202.301 114.696 202.133 115.144 201.957 115.592C201.797 116.04 201.629 116.496 201.453 116.96L199.749 121.784ZM223.81 116.264C223.794 115.32 223.698 114.536 223.522 113.912C223.346 113.288 223.034 112.824 222.586 112.52C222.154 112.2 221.522 112.048 220.69 112.064H218.65L218.626 125.144C218.626 125.992 218.602 126.624 218.554 127.04C218.89 127.024 219.218 127.008 219.538 126.992C219.874 126.976 220.21 126.96 220.546 126.944V128H214.906V127.208C215.514 127.176 215.922 127.032 216.13 126.776C216.354 126.52 216.474 126.176 216.49 125.744C216.522 125.296 216.538 124.8 216.538 124.256L216.562 112.088L214.09 112.112C213.082 112.112 212.37 112.448 211.954 113.12C211.538 113.792 211.33 114.84 211.33 116.264H210.442L210.586 111.2H224.578L224.722 116.264H223.81ZM231.986 111.992C231.394 112.008 230.978 112.144 230.738 112.4C230.514 112.656 230.386 113 230.354 113.432C230.338 113.864 230.33 114.368 230.33 114.944V125.144C230.33 125.992 230.306 126.624 230.258 127.04C230.546 127.024 230.834 127.008 231.122 126.992C231.41 126.976 231.698 126.96 231.986 126.944V128H226.586V127.208C227.194 127.176 227.61 127.04 227.834 126.8C228.058 126.544 228.178 126.2 228.194 125.768C228.226 125.32 228.242 124.816 228.242 124.256V113.888C228.242 113.216 228.266 112.64 228.314 112.16C228.026 112.176 227.738 112.192 227.45 112.208C227.162 112.224 226.874 112.24 226.586 112.256V111.2H231.986V111.992ZM247.753 128.384L238.177 115.52C238.033 115.328 237.889 115.144 237.745 114.968C237.617 114.776 237.481 114.584 237.337 114.392H237.313L237.385 124.664C237.385 125.064 237.385 125.464 237.385 125.864C237.385 126.264 237.369 126.656 237.337 127.04C237.625 127.024 237.913 127.008 238.201 126.992C238.489 126.976 238.777 126.96 239.065 126.944V128H234.673V127.208C235.169 127.208 235.521 127.104 235.729 126.896C235.953 126.672 236.097 126.416 236.161 126.128C236.225 125.824 236.257 125.552 236.257 125.312L236.281 113.768V112.16C236.025 112.176 235.761 112.192 235.489 112.208C235.217 112.224 234.945 112.24 234.673 112.256V111.2H237.529L246.529 123.248C246.737 123.52 246.937 123.792 247.129 124.064C247.337 124.336 247.545 124.608 247.753 124.88H247.777L247.801 113.888C247.801 113.216 247.825 112.64 247.873 112.16C247.585 112.176 247.297 112.192 247.009 112.208C246.721 112.224 246.433 112.24 246.145 112.256V111.2H250.561V111.992C249.969 112.008 249.561 112.144 249.337 112.4C249.113 112.656 248.993 113 248.977 113.432C248.961 113.864 248.953 114.368 248.953 114.944L248.905 128.384H247.753ZM260.757 128.384C259.157 128.384 257.741 128.048 256.509 127.376C255.277 126.704 254.317 125.736 253.629 124.472C252.941 123.208 252.597 121.704 252.597 119.96C252.597 118.824 252.765 117.72 253.101 116.648C253.453 115.56 253.973 114.576 254.661 113.696C255.365 112.816 256.237 112.12 257.277 111.608C258.333 111.08 259.557 110.816 260.949 110.816C261.813 110.816 262.685 110.936 263.565 111.176C264.461 111.4 265.245 111.72 265.917 112.136L265.821 110.984H267.141V116.48H266.277C266.213 115.472 265.941 114.624 265.461 113.936C264.997 113.232 264.389 112.696 263.637 112.328C262.885 111.96 262.045 111.776 261.117 111.776C259.981 111.776 258.941 112.104 257.997 112.76C257.069 113.4 256.325 114.296 255.765 115.448C255.221 116.6 254.949 117.92 254.949 119.408C254.949 120.912 255.221 122.256 255.765 123.44C256.309 124.624 257.061 125.552 258.021 126.224C258.997 126.896 260.117 127.232 261.381 127.232C262.021 127.232 262.709 127.136 263.445 126.944C264.181 126.752 264.861 126.448 265.485 126.032V120.776C265.213 120.792 264.933 120.808 264.645 120.824C264.357 120.84 264.077 120.856 263.805 120.872V119.816H269.229V120.608C268.781 120.608 268.437 120.728 268.197 120.968C267.957 121.192 267.789 121.472 267.693 121.808C267.597 122.128 267.541 122.448 267.525 122.768C267.509 123.072 267.501 123.304 267.501 123.464V127.136H266.853C266.597 127.136 266.245 127.184 265.797 127.28C265.349 127.376 264.837 127.536 264.261 127.76C263.765 127.952 263.189 128.104 262.533 128.216C261.877 128.328 261.285 128.384 260.757 128.384ZM277.351 128V127.208C277.959 127.176 278.375 127.04 278.599 126.8C278.823 126.544 278.943 126.2 278.959 125.768C278.991 125.32 279.007 124.816 279.007 124.256V113.888C279.007 113.216 279.031 112.64 279.079 112.16C278.791 112.176 278.503 112.192 278.215 112.208C277.927 112.224 277.639 112.24 277.351 112.256V111.2H282.751V111.992C282.159 112.008 281.743 112.144 281.503 112.4C281.279 112.656 281.151 113 281.119 113.432C281.103 113.864 281.095 114.368 281.095 114.944V125.24C281.095 126.072 281.071 126.696 281.023 127.112L285.511 127.04C286.519 127.024 287.279 126.704 287.791 126.08C288.319 125.456 288.583 124.44 288.583 123.032H289.399L289.255 128H277.351ZM299.086 128.384C297.566 128.384 296.262 128.128 295.174 127.616C294.086 127.104 293.198 126.424 292.51 125.576C291.838 124.712 291.342 123.76 291.021 122.72C290.702 121.68 290.542 120.64 290.542 119.6C290.542 118.592 290.71 117.576 291.046 116.552C291.382 115.512 291.894 114.56 292.582 113.696C293.286 112.832 294.158 112.136 295.198 111.608C296.254 111.08 297.486 110.816 298.894 110.816C300.366 110.816 301.638 111.08 302.71 111.608C303.782 112.136 304.662 112.84 305.35 113.72C306.054 114.584 306.574 115.528 306.91 116.552C307.262 117.576 307.438 118.592 307.438 119.6C307.438 120.592 307.27 121.608 306.934 122.648C306.598 123.672 306.078 124.624 305.374 125.504C304.686 126.368 303.822 127.064 302.782 127.592C301.742 128.12 300.51 128.384 299.086 128.384ZM299.134 127.4C300.126 127.4 300.99 127.192 301.726 126.776C302.462 126.344 303.07 125.776 303.549 125.072C304.046 124.352 304.414 123.56 304.654 122.696C304.91 121.816 305.038 120.936 305.038 120.056C305.038 119.064 304.902 118.08 304.63 117.104C304.358 116.128 303.958 115.24 303.43 114.44C302.902 113.64 302.246 113 301.462 112.52C300.694 112.024 299.814 111.776 298.822 111.776C297.83 111.776 296.958 111.992 296.206 112.424C295.47 112.856 294.854 113.432 294.358 114.152C293.878 114.856 293.51 115.648 293.254 116.528C293.014 117.392 292.894 118.272 292.894 119.168C292.894 120.048 293.014 120.968 293.254 121.928C293.51 122.888 293.894 123.784 294.406 124.616C294.918 125.448 295.566 126.12 296.35 126.632C297.134 127.144 298.062 127.4 299.134 127.4ZM315.939 128.24L310.491 115.472C310.139 114.656 309.891 114 309.747 113.504C309.603 112.992 309.507 112.56 309.459 112.208C309.235 112.224 309.011 112.232 308.787 112.232C308.563 112.232 308.339 112.24 308.115 112.256V111.2H313.683L313.659 112.016C312.859 112.064 312.379 112.312 312.219 112.76C312.059 113.192 312.139 113.808 312.459 114.608C312.843 115.552 313.211 116.464 313.563 117.344C313.915 118.224 314.307 119.176 314.739 120.2C315.123 121.096 315.491 121.96 315.843 122.792C316.211 123.608 316.491 124.288 316.683 124.832H316.731C316.907 124.272 317.083 123.736 317.259 123.224C317.451 122.712 317.675 122.104 317.931 121.4C318.411 120.056 318.811 118.92 319.131 117.992C319.467 117.064 319.755 116.272 319.995 115.616C320.235 114.96 320.435 114.4 320.595 113.936C320.739 113.52 320.867 113.168 320.979 112.88C321.091 112.592 321.195 112.352 321.291 112.16C320.987 112.176 320.683 112.192 320.379 112.208C320.075 112.224 319.763 112.24 319.443 112.256V111.2H324.315V111.992C323.611 112.024 323.067 112.208 322.683 112.544C322.315 112.88 321.979 113.48 321.675 114.344C321.643 114.424 321.603 114.536 321.555 114.68C321.507 114.808 321.427 115.024 321.315 115.328C321.203 115.632 321.043 116.08 320.835 116.672C320.627 117.248 320.339 118.032 319.971 119.024C319.619 120.016 319.163 121.264 318.603 122.768C318.059 124.272 317.395 126.096 316.611 128.24H315.939ZM333.563 121.784C333.563 121.08 333.467 120.576 333.275 120.272C333.083 119.968 332.779 119.784 332.363 119.72C331.947 119.656 331.395 119.64 330.707 119.672L328.955 119.744V125.24C328.955 126.072 328.931 126.696 328.883 127.112L333.467 127.04C334.171 127.024 334.779 126.912 335.291 126.704C335.803 126.48 336.203 126.096 336.491 125.552C336.779 125.008 336.923 124.264 336.923 123.32H337.739L337.595 128H325.211V127.208C325.819 127.176 326.235 127.04 326.459 126.8C326.683 126.544 326.803 126.2 326.819 125.768C326.851 125.32 326.867 124.816 326.867 124.256V113.888C326.867 113.216 326.891 112.64 326.939 112.16C326.651 112.176 326.363 112.192 326.075 112.208C325.787 112.224 325.499 112.24 325.211 112.256V111.2H336.755L336.875 115.4H336.083C336.083 114.456 335.939 113.744 335.651 113.264C335.363 112.768 334.971 112.44 334.475 112.28C333.995 112.104 333.451 112.024 332.843 112.04L330.779 112.088C330.187 112.104 329.763 112.216 329.507 112.424C329.251 112.632 329.091 112.944 329.027 113.36C328.979 113.76 328.955 114.288 328.955 114.944V118.784L333.467 118.808L333.299 116.744H334.355V121.784H333.563Z" fill="#868686"/>
<path d="M30.12 72.264C29.448 72.264 28.608 72.096 27.6 71.76C26.64 71.472 25.776 70.92 25.008 70.104C24.288 69.288 23.928 68.088 23.928 66.504C23.928 64.824 24.336 62.616 25.152 59.88C25.968 57.096 26.904 54.024 27.96 50.664C29.208 46.776 30.36 42.696 31.416 38.424C32.472 34.152 33 30.096 33 26.256C33 24.48 32.928 22.824 32.784 21.288C32.688 19.752 32.328 18.528 31.704 17.616C31.128 16.656 30.12 16.176 28.68 16.176C27.336 16.176 26.184 16.584 25.224 17.4C24.312 18.168 23.544 19.176 22.92 20.424C22.344 21.672 21.912 22.992 21.624 24.384C21.384 25.776 21.264 27.072 21.264 28.272C21.264 29.856 21.48 31.152 21.912 32.16C20.04 32.16 18.72 31.656 17.952 30.648C17.184 29.592 16.8 28.368 16.8 26.976C16.8 25.488 17.136 24 17.808 22.512C18.528 21.024 19.488 19.656 20.688 18.408C21.936 17.112 23.352 16.08 24.936 15.312C26.52 14.544 28.2 14.16 29.976 14.16C32.952 14.16 35.16 15.336 36.6 17.688C38.088 19.992 38.832 23.088 38.832 26.976C38.832 30.48 38.328 34.2 37.32 38.136C36.36 42.024 35.28 45.816 34.08 49.512C32.928 53.112 31.872 56.448 30.912 59.52C30 62.592 29.544 65.16 29.544 67.224C29.544 68.136 29.688 68.832 29.976 69.312C30.264 69.792 30.84 70.032 31.704 70.032C32.904 70.032 34.224 69.456 35.664 68.304C37.152 67.2 38.64 65.688 40.128 63.768C41.664 61.848 43.128 59.736 44.52 57.432C45.96 55.08 47.256 52.68 48.408 50.232C49.608 47.784 50.592 45.456 51.36 43.248C52.176 41.04 52.68 39.144 52.872 37.56C54.456 37.56 55.56 37.968 56.184 38.784C56.856 39.6 57.192 40.368 57.192 41.088C57.192 41.856 56.88 43.032 56.256 44.616C55.632 46.2 54.888 47.976 54.024 49.944C52.92 52.584 51.84 55.416 50.784 58.44C49.728 61.464 49.2 64.32 49.2 67.008C49.2 67.92 49.32 68.64 49.56 69.168C49.8 69.744 50.352 70.032 51.216 70.032C52.56 70.032 54.12 69.336 55.896 67.944C57.672 66.6 59.496 64.752 61.368 62.4C63.288 60 65.136 57.312 66.912 54.336C68.736 51.36 70.368 48.264 71.808 45.048C73.248 41.784 74.4 38.592 75.264 35.472C76.128 32.352 76.56 29.472 76.56 26.832C76.56 24.432 76.2 22.68 75.48 21.576C74.76 20.424 73.8 19.68 72.6 19.344C73.272 18.192 73.968 17.352 74.688 16.824C75.456 16.296 76.152 16.032 76.776 16.032C77.784 16.032 78.768 16.68 79.728 17.976C80.688 19.272 81.168 21.288 81.168 24.024C81.168 26.664 80.664 29.664 79.656 33.024C78.696 36.384 77.376 39.888 75.696 43.536C74.016 47.136 72.096 50.64 69.936 54.048C67.776 57.456 65.52 60.528 63.168 63.264C60.816 66 58.488 68.184 56.184 69.816C53.88 71.448 51.744 72.264 49.776 72.264C48.864 72.264 47.928 72.072 46.968 71.688C46.008 71.304 45.192 70.704 44.52 69.888C43.896 69.12 43.584 68.112 43.584 66.864C43.584 66.144 43.704 65.232 43.944 64.128C44.232 62.976 44.592 61.728 45.024 60.384C42.576 63.84 40.056 66.672 37.464 68.88C34.92 71.136 32.472 72.264 30.12 72.264ZM92.2459 34.896C91.4779 34.896 90.7819 34.704 90.1579 34.32C89.5819 33.936 89.2939 33.336 89.2939 32.52C89.2939 31.512 89.8699 30.648 91.0219 29.928C92.2219 29.16 93.3979 28.776 94.5499 28.776C95.2699 28.776 95.8459 28.944 96.2779 29.28C96.7099 29.616 96.9259 30.192 96.9259 31.008C96.9259 31.92 96.4219 32.808 95.4139 33.672C94.4539 34.488 93.3979 34.896 92.2459 34.896ZM83.6059 67.872C81.7339 67.872 80.3419 67.272 79.4299 66.072C78.5179 64.92 78.0619 63.504 78.0619 61.824C78.0619 60.72 78.2539 59.328 78.6379 57.648C79.0699 55.968 79.6219 54.216 80.2939 52.392C80.9659 50.52 81.7339 48.768 82.5979 47.136C83.5099 45.504 84.4699 44.184 85.4779 43.176C86.4859 42.12 87.4699 41.592 88.4299 41.592C88.8619 41.592 89.2219 41.736 89.5099 42.024C89.8459 42.264 90.0139 42.648 90.0139 43.176C90.0139 43.752 89.6299 44.688 88.8619 45.984C88.1419 47.28 87.2779 48.768 86.2699 50.448C85.2619 52.128 84.3739 53.904 83.6059 55.776C82.8859 57.6 82.5259 59.352 82.5259 61.032C82.5259 62.76 82.8139 63.912 83.3899 64.488C83.9659 65.064 84.8539 65.352 86.0539 65.352C87.6859 65.352 89.4139 64.536 91.2379 62.904C93.1099 61.272 95.0779 58.416 97.1419 54.336L97.7899 55.056C96.3979 59.184 94.3819 62.352 91.7419 64.56C89.1499 66.768 86.4379 67.872 83.6059 67.872ZM101.765 68.16C99.7011 68.16 98.2131 67.44 97.3011 66C96.4371 64.608 96.0051 62.856 96.0051 60.744C96.0051 58.44 96.4371 55.704 97.3011 52.536C98.1651 49.368 99.2931 46.032 100.685 42.528C102.125 39.024 103.685 35.616 105.365 32.304C107.045 28.944 108.725 25.896 110.405 23.16C112.085 20.424 113.621 18.24 115.013 16.608C116.453 14.976 117.581 14.16 118.397 14.16C118.925 14.16 119.357 14.472 119.693 15.096C120.029 15.672 120.293 16.392 120.485 17.256C120.677 18.072 120.773 18.816 120.773 19.488C120.773 20.784 120.437 22.488 119.765 24.6C119.141 26.664 118.229 28.992 117.029 31.584C115.877 34.128 114.485 36.72 112.853 39.36C111.269 41.952 109.517 44.448 107.597 46.848C105.725 49.248 103.733 51.312 101.621 53.04C101.333 54.336 101.093 55.608 100.901 56.856C100.757 58.056 100.685 59.208 100.685 60.312C100.685 64.008 101.741 65.856 103.853 65.856C105.005 65.856 106.157 65.376 107.309 64.416C108.509 63.408 109.637 62.136 110.693 60.6C111.797 59.064 112.757 57.432 113.573 55.704C114.053 53.208 114.773 50.544 115.733 47.712C116.693 44.832 117.797 41.952 119.045 39.072C120.293 36.192 121.613 33.432 123.005 30.792C124.397 28.152 125.765 25.8 127.109 23.736C128.453 21.672 129.701 20.04 130.853 18.84C132.005 17.64 132.941 17.04 133.661 17.04C134.189 17.04 134.621 17.352 134.957 17.976C135.293 18.552 135.557 19.272 135.749 20.136C135.941 20.952 136.037 21.696 136.037 22.368C136.037 23.952 135.629 26.04 134.813 28.632C133.997 31.176 132.821 33.912 131.285 36.84C129.797 39.768 127.973 42.672 125.813 45.552C123.701 48.384 121.325 50.88 118.685 53.04C118.397 54.336 118.157 55.608 117.965 56.856C117.821 58.056 117.749 59.208 117.749 60.312C117.749 64.008 118.805 65.856 120.917 65.856C122.213 65.856 123.485 65.28 124.733 64.128C126.029 62.976 127.229 61.536 128.333 59.808C129.485 58.032 130.469 56.208 131.285 54.336L132.365 54.912C130.445 58.992 128.357 62.232 126.101 64.632C123.845 66.984 121.421 68.16 118.829 68.16C116.525 68.16 114.941 67.296 114.077 65.568C113.213 63.84 112.901 61.68 113.141 59.088C111.461 61.92 109.661 64.152 107.741 65.784C105.869 67.368 103.877 68.16 101.765 68.16ZM102.269 50.592C103.949 48.912 105.581 46.992 107.165 44.832C108.749 42.624 110.213 40.344 111.557 37.992C112.949 35.64 114.173 33.36 115.229 31.152C116.285 28.944 117.101 26.976 117.677 25.248C118.253 23.472 118.541 22.104 118.541 21.144C118.541 20.664 118.469 20.352 118.325 20.208C118.229 20.064 118.133 19.992 118.037 19.992C117.653 19.992 116.981 20.616 116.021 21.864C115.109 23.064 114.029 24.696 112.781 26.76C111.533 28.824 110.261 31.176 108.965 33.816C107.669 36.456 106.421 39.216 105.221 42.096C104.069 44.976 103.085 47.808 102.269 50.592ZM119.333 50.592C121.445 48.48 123.365 46.152 125.093 43.608C126.869 41.064 128.405 38.52 129.701 35.976C130.997 33.432 132.005 31.104 132.725 28.992C133.445 26.88 133.805 25.224 133.805 24.024C133.805 23.544 133.733 23.232 133.589 23.088C133.493 22.944 133.397 22.872 133.301 22.872C132.821 22.872 132.005 23.664 130.853 25.248C129.749 26.784 128.477 28.872 127.037 31.512C125.645 34.152 124.253 37.128 122.861 40.44C121.517 43.752 120.341 47.136 119.333 50.592ZM143.644 34.896C142.876 34.896 142.18 34.704 141.556 34.32C140.98 33.936 140.692 33.336 140.692 32.52C140.692 31.512 141.268 30.648 142.42 29.928C143.62 29.16 144.796 28.776 145.948 28.776C146.668 28.776 147.244 28.944 147.676 29.28C148.108 29.616 148.324 30.192 148.324 31.008C148.324 31.92 147.82 32.808 146.812 33.672C145.852 34.488 144.796 34.896 143.644 34.896ZM135.004 67.872C133.132 67.872 131.74 67.272 130.828 66.072C129.916 64.92 129.46 63.504 129.46 61.824C129.46 60.72 129.652 59.328 130.036 57.648C130.468 55.968 131.02 54.216 131.692 52.392C132.364 50.52 133.132 48.768 133.996 47.136C134.908 45.504 135.868 44.184 136.876 43.176C137.884 42.12 138.868 41.592 139.828 41.592C140.26 41.592 140.62 41.736 140.908 42.024C141.244 42.264 141.412 42.648 141.412 43.176C141.412 43.752 141.028 44.688 140.26 45.984C139.54 47.28 138.676 48.768 137.668 50.448C136.66 52.128 135.772 53.904 135.004 55.776C134.284 57.6 133.924 59.352 133.924 61.032C133.924 62.76 134.212 63.912 134.788 64.488C135.364 65.064 136.252 65.352 137.452 65.352C139.084 65.352 140.812 64.536 142.636 62.904C144.508 61.272 146.476 58.416 148.54 54.336L149.188 55.056C147.796 59.184 145.78 62.352 143.14 64.56C140.548 66.768 137.836 67.872 135.004 67.872ZM154.964 69.168C152.036 69.168 149.828 68.352 148.34 66.72C146.899 65.136 146.179 63.168 146.179 60.816C146.179 58.656 146.707 56.376 147.764 53.976C148.868 51.576 150.308 49.32 152.084 47.208C153.908 45.096 155.9 43.392 158.06 42.096C160.22 40.752 162.356 40.08 164.468 40.08C165.572 40.08 166.58 40.368 167.492 40.944C168.452 41.52 168.932 42.696 168.932 44.472C168.932 46.296 168.38 48.024 167.276 49.656C166.22 51.24 164.804 52.656 163.028 53.904C161.3 55.152 159.38 56.184 157.268 57C155.204 57.768 153.14 58.248 151.076 58.44C150.98 58.92 150.908 59.376 150.86 59.808C150.812 60.24 150.788 60.648 150.788 61.032C150.788 62.52 151.172 63.912 151.939 65.208C152.756 66.456 154.268 67.08 156.476 67.08C158.54 67.08 160.58 66.504 162.596 65.352C164.612 64.152 166.484 62.592 168.212 60.672C169.94 58.752 171.404 56.64 172.604 54.336L173.468 54.984C172.172 57.864 170.516 60.36 168.5 62.472C166.532 64.584 164.372 66.216 162.02 67.368C159.716 68.568 157.364 69.168 154.964 69.168ZM151.436 57.072C152.732 56.64 154.196 56.016 155.828 55.2C157.46 54.336 159.02 53.328 160.508 52.176C162.044 51.024 163.292 49.752 164.252 48.36C165.26 46.968 165.764 45.504 165.764 43.968C165.764 43.44 165.668 43.032 165.476 42.744C165.284 42.456 164.876 42.312 164.252 42.312C163.1 42.312 161.876 42.768 160.58 43.68C159.284 44.544 158.036 45.696 156.836 47.136C155.636 48.576 154.556 50.16 153.596 51.888C152.636 53.616 151.916 55.344 151.436 57.072ZM203.691 72.264C200.811 72.264 198.315 71.664 196.203 70.464C194.091 69.264 192.459 67.68 191.307 65.712C190.203 63.696 189.651 61.512 189.651 59.16C189.651 56.952 190.131 54.792 191.091 52.68C192.051 50.568 193.371 48.648 195.051 46.92C196.779 45.144 198.771 43.704 201.027 42.6C203.283 41.448 205.707 40.752 208.299 40.512C206.427 38.976 205.035 37.2 204.123 35.184C203.259 33.168 202.827 31.152 202.827 29.136C202.827 26.592 203.475 24.192 204.771 21.936C206.067 19.632 207.819 17.784 210.027 16.392C212.283 14.952 214.851 14.232 217.731 14.232C222.963 14.232 225.579 16.776 225.579 21.864C225.579 23.64 225.291 25.392 224.715 27.12C224.139 28.8 223.419 30.192 222.555 31.296C221.739 32.352 220.923 32.88 220.107 32.88C219.579 32.88 219.075 32.664 218.595 32.232C218.115 31.752 217.731 31.2 217.443 30.576C219.123 29.088 220.515 27.552 221.619 25.968C222.771 24.336 223.347 22.584 223.347 20.712C223.347 19.224 222.939 18.024 222.123 17.112C221.355 16.152 220.131 15.672 218.451 15.672C216.195 15.672 214.299 16.368 212.763 17.76C211.227 19.104 210.051 20.904 209.235 23.16C208.467 25.368 208.083 27.768 208.083 30.36C208.083 32.088 208.347 33.96 208.875 35.976C209.403 37.992 210.531 39.744 212.259 41.232C209.043 41.76 206.235 42.984 203.835 44.904C201.483 46.824 199.635 49.08 198.291 51.672C196.995 54.264 196.347 56.832 196.347 59.376C196.347 60.96 196.635 62.568 197.211 64.2C197.835 65.784 198.819 67.104 200.163 68.16C201.507 69.264 203.307 69.816 205.563 69.816C208.107 69.816 210.555 69.168 212.907 67.872C215.307 66.576 217.467 64.848 219.387 62.688C221.355 60.528 222.963 58.104 224.211 55.416C225.459 52.68 226.251 49.872 226.587 46.992C225.579 47.04 224.643 47.112 223.779 47.208C222.963 47.304 222.051 47.448 221.043 47.64C220.035 47.784 218.739 48.024 217.155 48.36C217.251 46.344 218.019 45 219.459 44.328C220.899 43.656 222.627 43.32 224.643 43.32C226.755 43.32 228.747 43.512 230.619 43.896C232.491 44.28 234.171 44.496 235.659 44.544C235.131 45.648 234.603 46.32 234.075 46.56C233.595 46.752 233.115 46.848 232.635 46.848C231.819 46.848 231.051 46.872 230.331 46.92C229.659 46.92 229.035 46.92 228.459 46.92C228.123 50.232 227.211 53.4 225.723 56.424C224.283 59.448 222.411 62.16 220.107 64.56C217.851 66.912 215.307 68.784 212.475 70.176C209.691 71.568 206.763 72.264 203.691 72.264ZM264.674 72.264C263.186 72.264 261.77 72.048 260.426 71.616C259.082 71.232 257.93 70.368 256.97 69.024C257.546 66.288 258.266 63.288 259.13 60.024C260.042 56.712 261.002 53.376 262.01 50.016C263.018 46.656 264.002 43.464 264.962 40.44C265.97 37.368 266.858 34.68 267.626 32.376C268.394 30.072 268.994 28.368 269.426 27.264C269.618 26.736 269.978 25.944 270.506 24.888C271.034 23.784 271.682 22.776 272.45 21.864C273.218 20.952 274.082 20.496 275.042 20.496C275.714 20.496 276.386 20.736 277.058 21.216C275.57 24.672 274.058 28.488 272.522 32.664C271.034 36.84 269.594 41.16 268.202 45.624C266.81 50.04 265.538 54.36 264.386 58.584C263.234 62.808 262.274 66.648 261.506 70.104C262.658 70.296 263.69 70.392 264.602 70.392C267.674 70.392 270.626 69.672 273.458 68.232C276.338 66.84 279.002 64.92 281.45 62.472C283.946 59.976 286.13 57.144 288.002 53.976C289.874 50.76 291.314 47.376 292.322 43.824C293.378 40.224 293.906 36.648 293.906 33.096C293.906 27.24 292.538 22.944 289.802 20.208C287.066 17.472 283.514 16.104 279.146 16.104C276.026 16.104 273.218 16.728 270.722 17.976C268.226 19.224 266.258 20.904 264.818 23.016C263.378 25.128 262.658 27.504 262.658 30.144C262.658 31.2 262.778 32.088 263.018 32.808C261.434 32.808 260.306 32.424 259.634 31.656C259.01 30.84 258.698 29.88 258.698 28.776C258.698 27.096 259.274 25.416 260.426 23.736C261.626 22.008 263.258 20.424 265.322 18.984C267.434 17.544 269.858 16.392 272.594 15.528C275.33 14.616 278.234 14.16 281.306 14.16C285.626 14.16 289.082 15.048 291.674 16.824C294.314 18.552 296.234 20.904 297.434 23.88C298.634 26.856 299.234 30.192 299.234 33.888C299.234 38.064 298.586 42.072 297.29 45.912C295.994 49.704 294.194 53.208 291.89 56.424C289.634 59.592 287.042 62.376 284.114 64.776C281.186 67.128 278.042 68.952 274.682 70.248C271.37 71.592 268.034 72.264 264.674 72.264ZM304.101 68.304C302.037 68.304 300.573 67.656 299.709 66.36C298.845 65.112 298.413 63.576 298.413 61.752C298.413 60.264 298.653 58.728 299.133 57.144C299.613 55.56 300.237 54.072 301.005 52.68C301.821 51.288 302.709 50.16 303.669 49.296C304.677 48.432 305.685 48 306.693 48C307.125 48 307.629 48.12 308.205 48.36C307.773 48.744 307.245 49.464 306.621 50.52C306.045 51.528 305.493 52.704 304.965 54.048C304.437 55.344 303.981 56.64 303.597 57.936C303.261 59.232 303.093 60.336 303.093 61.248C303.093 62.688 303.333 63.744 303.813 64.416C304.293 65.04 304.917 65.352 305.685 65.352C306.693 65.352 307.893 64.824 309.285 63.768C310.677 62.664 312.045 61.272 313.389 59.592C312.045 58.488 310.989 57.048 310.221 55.272C309.501 53.448 309.141 51.6 309.141 49.728C309.141 48.144 309.405 46.656 309.933 45.264C310.509 43.872 311.325 42.768 312.381 41.952C313.437 41.088 314.709 40.656 316.197 40.656C318.165 40.656 319.485 41.184 320.157 42.24C320.829 43.296 321.165 44.616 321.165 46.2C321.165 48.072 320.709 50.16 319.797 52.464C318.885 54.72 317.733 56.904 316.341 59.016C317.205 59.496 318.117 59.736 319.077 59.736C320.181 59.736 321.525 59.376 323.109 58.656C324.693 57.888 325.917 56.52 326.781 54.552L327.645 55.272C326.685 57.528 325.317 59.136 323.541 60.096C321.813 61.008 320.157 61.464 318.573 61.464C317.277 61.464 316.125 61.224 315.117 60.744C313.485 62.904 311.685 64.704 309.717 66.144C307.797 67.584 305.925 68.304 304.101 68.304ZM314.685 57.72C315.885 55.944 316.869 54.096 317.637 52.176C318.453 50.208 318.861 48.36 318.861 46.632C318.861 45.24 318.645 44.232 318.213 43.608C317.829 42.936 317.325 42.6 316.701 42.6C315.741 42.6 314.757 43.296 313.749 44.688C312.741 46.08 312.237 47.832 312.237 49.944C312.237 51.336 312.429 52.752 312.813 54.192C313.245 55.584 313.869 56.76 314.685 57.72ZM348.686 67.44C347.006 67.44 345.734 67.008 344.87 66.144C344.054 65.28 343.646 64.176 343.646 62.832C343.646 61.824 343.814 60.768 344.15 59.664C344.534 58.56 344.894 57.432 345.23 56.28C345.566 55.08 345.734 53.928 345.734 52.824C345.734 51.48 345.446 50.568 344.87 50.088C344.342 49.56 343.67 49.296 342.854 49.296C341.366 49.296 339.854 49.92 338.318 51.168C336.782 52.368 335.294 53.928 333.854 55.848C332.414 57.72 331.07 59.664 329.822 61.68C328.574 63.696 327.47 65.496 326.51 67.08C325.742 67.08 325.022 66.936 324.35 66.648C323.63 66.408 323.078 66.024 322.694 65.496C322.694 65.256 322.958 64.512 323.486 63.264C323.966 62.016 324.542 60.48 325.214 58.656C325.886 56.832 326.486 54.96 327.014 53.04C327.542 51.12 327.806 49.368 327.806 47.784C328.094 47.448 328.55 47.112 329.174 46.776C329.798 46.44 330.446 46.272 331.118 46.272C332.414 46.272 333.062 46.896 333.062 48.144C333.062 48.912 332.846 50.208 332.414 52.032C331.982 53.808 331.43 55.68 330.758 57.648C332.054 55.68 333.494 53.736 335.078 51.816C336.71 49.848 338.438 48.216 340.262 46.92C342.086 45.624 343.91 44.976 345.734 44.976C347.606 44.976 348.95 45.648 349.766 46.992C350.63 48.336 351.062 49.824 351.062 51.456C351.062 52.944 350.822 54.336 350.342 55.632C349.862 56.88 349.358 58.104 348.83 59.304C348.35 60.456 348.11 61.632 348.11 62.832C348.11 63.84 348.302 64.56 348.686 64.992C349.118 65.376 349.646 65.568 350.27 65.568C351.47 65.568 352.67 65.016 353.87 63.912C355.07 62.76 356.222 61.32 357.326 59.592C358.478 57.864 359.486 56.112 360.35 54.336L361.142 55.272C359.654 58.776 357.878 61.68 355.814 63.984C353.75 66.288 351.374 67.44 348.686 67.44ZM382.225 67.44C380.545 67.44 379.273 67.008 378.409 66.144C377.593 65.28 377.185 64.176 377.185 62.832C377.185 61.824 377.353 60.768 377.689 59.664C378.073 58.56 378.433 57.432 378.769 56.28C379.105 55.08 379.273 53.928 379.273 52.824C379.273 51.48 378.985 50.568 378.409 50.088C377.881 49.56 377.209 49.296 376.393 49.296C374.905 49.296 373.393 49.92 371.857 51.168C370.321 52.368 368.833 53.928 367.393 55.848C365.953 57.72 364.609 59.664 363.361 61.68C362.113 63.696 361.009 65.496 360.049 67.08C359.281 67.08 358.561 66.936 357.889 66.648C357.169 66.408 356.617 66.024 356.233 65.496C356.233 65.256 356.497 64.512 357.025 63.264C357.505 62.016 358.081 60.48 358.753 58.656C359.425 56.832 360.025 54.96 360.553 53.04C361.081 51.12 361.345 49.368 361.345 47.784C361.633 47.448 362.089 47.112 362.713 46.776C363.337 46.44 363.985 46.272 364.657 46.272C365.953 46.272 366.601 46.896 366.601 48.144C366.601 48.912 366.385 50.208 365.953 52.032C365.521 53.808 364.969 55.68 364.297 57.648C365.593 55.68 367.033 53.736 368.617 51.816C370.249 49.848 371.977 48.216 373.801 46.92C375.625 45.624 377.449 44.976 379.273 44.976C381.145 44.976 382.489 45.648 383.305 46.992C384.169 48.336 384.601 49.824 384.601 51.456C384.601 52.944 384.361 54.336 383.881 55.632C383.401 56.88 382.897 58.104 382.369 59.304C381.889 60.456 381.649 61.632 381.649 62.832C381.649 63.84 381.841 64.56 382.225 64.992C382.657 65.376 383.185 65.568 383.809 65.568C385.009 65.568 386.209 65.016 387.409 63.912C388.609 62.76 389.761 61.32 390.865 59.592C392.017 57.864 393.025 56.112 393.889 54.336L394.681 55.272C393.193 58.776 391.417 61.68 389.353 63.984C387.289 66.288 384.913 67.44 382.225 67.44ZM395.964 69.384C394.476 69.384 393.228 68.88 392.22 67.872C391.164 66.912 390.636 65.424 390.636 63.408C390.636 61.68 391.02 59.832 391.788 57.864C392.556 55.848 393.612 53.88 394.956 51.96C396.3 49.992 397.812 48.216 399.492 46.632C401.22 45 403.02 43.704 404.892 42.744C406.812 41.784 408.708 41.304 410.58 41.304C412.452 41.304 414.012 41.808 415.26 42.816C416.508 43.776 417.132 45.072 417.132 46.704C417.132 47.904 416.796 48.72 416.124 49.152C415.5 49.584 414.66 49.8 413.604 49.8C413.844 48.936 413.964 48.096 413.964 47.28C413.964 46.176 413.7 45.24 413.172 44.472C412.644 43.656 411.732 43.248 410.436 43.248C409.092 43.248 407.724 43.728 406.332 44.688C404.94 45.6 403.596 46.848 402.3 48.432C401.004 49.968 399.852 51.648 398.844 53.472C397.836 55.296 397.044 57.096 396.468 58.872C395.892 60.648 395.604 62.232 395.604 63.624C395.604 65.496 396.252 66.432 397.548 66.432C398.652 66.432 399.852 65.928 401.148 64.92C402.444 63.864 403.764 62.544 405.108 60.96C406.5 59.328 407.82 57.648 409.068 55.92C410.316 54.192 411.42 52.608 412.38 51.168C412.572 50.88 412.692 50.736 412.74 50.736C413.172 50.784 413.748 50.976 414.468 51.312C415.188 51.6 415.548 52.008 415.548 52.536C415.548 52.968 415.332 53.568 414.9 54.336C414.468 55.056 413.988 55.896 413.46 56.856C412.932 57.816 412.452 58.8 412.02 59.808C411.588 60.768 411.372 61.68 411.372 62.544C411.372 63.264 411.564 63.984 411.948 64.704C412.332 65.376 412.956 65.712 413.82 65.712C415.116 65.712 416.82 64.776 418.932 62.904C421.044 60.984 423.18 58.128 425.34 54.336L426.06 55.056C425.052 57.648 423.756 59.928 422.172 61.896C420.588 63.864 418.884 65.4 417.06 66.504C415.284 67.608 413.532 68.16 411.804 68.16C410.028 68.16 408.708 67.632 407.844 66.576C407.028 65.52 406.62 64.368 406.62 63.12C406.62 62.496 406.692 61.8 406.836 61.032C404.772 63.816 402.876 65.904 401.148 67.296C399.468 68.688 397.74 69.384 395.964 69.384Z" fill="black"/>
<line y1="118.5" x2="89" y2="118.5" stroke="#838383"/>
<line x1="354" y1="118.5" x2="443" y2="118.5" stroke="#656464"/>
</svg>
